<?xml version="1.0" standalone="no"?><!DOCTYPE svg PUBLIC "-//W3C//DTD SVG 1.1//EN" "http://www.w3.org/Graphics/SVG/1.1/DTD/svg11.dtd"><svg class="icon" width="200px" height="200.00px" viewBox="0 0 1024 1024" version="1.1" xmlns="http://www.w3.org/2000/svg"><path fill="#2c2c2c" d="M500.6 513.2c44.7-35 73.4-89.5 73.4-150.7 0-105.7-85.6-191.3-191.3-191.3s-191.3 85.7-191.3 191.3c0 61.7 29.3 116.6 74.7 151.6C147.8 563.6 64.3 684 64.3 818.7v0.1h0.1c0 17.7 14.5 32 32.2 32 17.8 0 32.2-14.4 32.2-32.1 0-1.1-0.1-2.2-0.2-3.3 2.3-139 115.9-260 255.8-260 140.3 0 254.3 121.7 255.9 261.3 0 0.6-0.1 1.3-0.1 1.9 0 17.7 14.4 32.1 32.2 32.1 17.8 0.1 32.2-14.2 32.3-32 0-135.5-84.7-256.7-204.1-305.5zM382.7 233.3c70.8 0 128.3 57.4 128.3 128.2 0 70.9-57.4 128.4-128.3 128.4s-128.3-57.5-128.3-128.3c0-70.9 57.5-128.3 128.3-128.3z"  /><path fill="#2c2c2c" d="M896.3 799.6a32.2 32.1 0 1 0 64.4 0 32.2 32.1 0 1 0-64.4 0Z"  /><path fill="#2c2c2c" d="M931 675.6c0-6.5-2-12.8-5.6-17.9-35.6-65-95.7-114.5-168.8-144.5 44.7-35 73.4-89.5 73.4-150.7 0-82.5-52.3-152.9-125.5-179.7-0.4-0.1-0.8-0.3-1.2-0.4-2.8-0.8-5.8-1.3-8.9-1.3-17.2 0-31.2 13.9-31.2 31 0 13.9 9.2 25.7 21.8 29.6 48 18.6 82 65.2 82 119.7 0 52.8-31.8 98.1-77.3 117.8-15.6 6.7-26.5 22.2-26.5 40.2 0 20.8 14.6 38.3 34.1 42.7 76.5 18.5 140 64.4 173.5 129.3 5.5 9.7 16 16.3 28 16.3 17.8 0 32.2-14.4 32.2-32.1z"  /></svg>