<?xml version="1.0" standalone="no"?><!DOCTYPE svg PUBLIC "-//W3C//DTD SVG 1.1//EN" "http://www.w3.org/Graphics/SVG/1.1/DTD/svg11.dtd"><svg class="icon" width="200px" height="200.00px" viewBox="0 0 1024 1024" version="1.1" xmlns="http://www.w3.org/2000/svg"><path fill="#ffffff" d="M404 464h-144c-14.4 0-24 9.6-24 24s9.6 24 24 24h144c14.4 0 24-9.6 24-24s-12-24-24-24z m0 192h-144c-14.4 0-24 9.6-24 24s9.6 24 24 24h144c14.4 0 24-9.6 24-24s-12-24-24-24z m0-96h-144c-14.4 0-24 9.6-24 24s9.6 24 24 24h144c14.4 0 24-9.6 24-24s-12-24-24-24z m408-240h-50.4L509.6 178.4c-12-7.2-26.4-2.4-33.6 9.6-7.2 12-2.4 24 9.6 31.2l182.4 100.8h-432c-52.8 0-96 43.2-96 96v336c0 52.8 43.2 96 96 96h576c52.8 0 96-43.2 96-96V416c0-52.8-43.2-96-96-96z m48 432c0 26.4-21.6 48-48 48h-576c-26.4 0-48-21.6-48-48V416c0-26.4 21.6-48 48-48h576c26.4 0 48 21.6 48 48v336z m-216-312c-79.2 0-144 64.8-144 144s64.8 144 144 144 144-64.8 144-144-64.8-144-144-144z m0 240c-52.8 0-96-43.2-96-96s43.2-96 96-96 96 43.2 96 96-43.2 96-96 96z"  /></svg>