<?xml version="1.0" standalone="no"?><!DOCTYPE svg PUBLIC "-//W3C//DTD SVG 1.1//EN" "http://www.w3.org/Graphics/SVG/1.1/DTD/svg11.dtd"><svg class="icon" width="200px" height="200.00px" viewBox="0 0 1024 1024" version="1.1" xmlns="http://www.w3.org/2000/svg"><path fill="#8a8a8a" d="M512 891.9c-108.9 0-447.3-277.5-447.3-522.2 0-131 106.6-237.6 237.6-237.6 94.9 0 174.8 50.2 209.7 76.1 34.9-25.9 114.8-76.1 209.7-76.1 131 0 237.6 106.6 237.6 237.6 0 244.7-338.4 522.2-447.3 522.2zM302.3 188c-100.2 0-181.7 81.5-181.7 181.7 0 221 326.8 466.3 391.4 466.3s391.4-245.3 391.4-466.3c0-100.2-81.5-181.7-181.7-181.7-103.9 0-190.2 76-191.1 76.8-10.6 9.5-26.7 9.5-37.3 0-0.8-0.8-87.7-76.8-191-76.8z"  /></svg>