<?xml version="1.0" standalone="no"?><!DOCTYPE svg PUBLIC "-//W3C//DTD SVG 1.1//EN" "http://www.w3.org/Graphics/SVG/1.1/DTD/svg11.dtd"><svg class="icon" width="200px" height="200.00px" viewBox="0 0 1024 1024" version="1.1" xmlns="http://www.w3.org/2000/svg"><path fill="#ffffff" d="M92.16 277.771264 528.367616 277.771264 528.367616 311.323648 92.16 311.323648 92.16 277.771264ZM92.16 428.758016 528.367616 428.758016 528.367616 462.3104 92.16 462.3104 92.16 428.758016ZM92.16 579.743744 528.367616 579.743744 528.367616 613.296128 92.16 613.296128 92.16 579.743744ZM696.1408 297.824256 931.0208 328.09984c0-167.76192-134.216704-201.314304-268.434432-234.91584l0 24.689664 0 175.62624 0 437.230592c-20.086784 0-52.035584 0-103.384064 0-98.614272 0-131.49696 52.179968-131.49696 99.837952 0 40.433664 30.260224 101.477376 134.217728 101.477376 148.635648 0 134.217728-119.334912 134.217728-201.314304L696.1408 297.824256 696.1408 297.824256z" /></svg>