<?xml version="1.0" standalone="no"?><!DOCTYPE svg PUBLIC "-//W3C//DTD SVG 1.1//EN" "http://www.w3.org/Graphics/SVG/1.1/DTD/svg11.dtd"><svg class="icon" width="200px" height="200.00px" viewBox="0 0 1024 1024" version="1.1" xmlns="http://www.w3.org/2000/svg"><path fill="#707070" d="M983.8 312.7C958 251.7 921.1 197 874 150c-47-47-101.8-83.9-162.7-109.7C648.2 13.5 581.1 0 512 0c-69.1 0-136.2 13.5-199.3 40.2C251.7 66 197 102.9 150 150c-47 47-83.9 101.8-109.7 162.7C13.5 375.8 0 442.9 0 512c0 69.1 13.5 136.2 40.2 199.3C66 772.3 102.9 827 150 874c47 47 101.8 83.9 162.7 109.7 63.1 26.7 130.2 40.2 199.3 40.2 69.1 0 136.2-13.5 199.3-40.2C772.3 958 827 921.1 874 874c47-47 83.9-101.8 109.7-162.7 26.7-63.1 40.2-130.2 40.2-199.3 0.1-69.1-13.4-136.2-40.1-199.3zM944 694.5c-23.6 55.8-57.4 106-100.5 149-43.1 43.1-93.2 76.9-149 100.5-57.8 24.4-119.2 36.8-182.5 36.8S387.3 968.4 329.5 944c-55.8-23.6-106-57.4-149-100.5-43.1-43.1-76.9-93.2-100.5-149C55.6 636.7 43.2 575.3 43.2 512S55.6 387.3 80 329.5c23.6-55.8 57.4-106 100.5-149 43.1-43.1 93.2-76.9 149-100.5C387.3 55.6 448.7 43.2 512 43.2S636.7 55.6 694.5 80c55.8 23.6 106 57.4 149 100.5 43.1 43.1 76.9 93.2 100.5 149 24.4 57.8 36.8 119.2 36.8 182.5S968.4 636.7 944 694.5z m-555.9 32.9L691 527.9 388.1 294.6v432.8z" /></svg>