<?xml version="1.0" standalone="no"?><!DOCTYPE svg PUBLIC "-//W3C//DTD SVG 1.1//EN" "http://www.w3.org/Graphics/SVG/1.1/DTD/svg11.dtd"><svg class="icon" width="200px" height="200.00px" viewBox="0 0 1024 1024" version="1.1" xmlns="http://www.w3.org/2000/svg"><path fill="#ffffff" d="M5.12 890.88l0-40.96 102.4 0L107.52 358.4c0-25.40544 20.66944-46.08 46.08-46.08l209.92 0L363.52 179.2c0-25.40544 20.66944-46.08 46.08-46.08l204.8 0c25.41056 0 46.08 20.67456 46.08 46.08l0 312.32 209.92 0c25.41056 0 46.08 20.67456 46.08 46.08l0 312.32 102.4 0 0 40.96L5.12 890.88zM660.48 849.92l215.04 0 0-261.12c0-2.28352 0.02048-4.53632 0.03584-6.7328 0.13824-17.65376 0.256-32.91136-8.79616-42.04032C861.7216 534.94784 854.53824 532.48 844.8 532.48l-184.32 0L660.48 849.92zM435.2 174.08c-16.94208 0-30.72 13.77792-30.72 30.72l0 645.12 215.04 0L619.52 204.8c0-16.94208-13.7728-30.72-30.72-30.72L435.2 174.08zM179.2 353.28c-12.1088 0-19.61472 2.1248-24.3456 6.89664-6.62016 6.67136-6.528 17.09056-6.41024 31.50848C148.45952 393.8048 148.48 396.0576 148.48 398.40256l0 451.52256 215.04 0 0-496.64L179.2 353.28 179.2 353.28z" /></svg>