<?xml version="1.0" standalone="no"?><!DOCTYPE svg PUBLIC "-//W3C//DTD SVG 1.1//EN" "http://www.w3.org/Graphics/SVG/1.1/DTD/svg11.dtd"><svg class="icon" width="200px" height="200.00px" viewBox="0 0 1024 1024" version="1.1" xmlns="http://www.w3.org/2000/svg"><path fill="#d81e06" d="M493.5936 765.952a25.6256 25.6256 0 0 0 33.7152-5.6064l193.5872-242.0992a25.6 25.6 0 0 0-39.9616-32l-179.2512 224.1792-143.5904-91.3408a25.6 25.6 0 0 0-27.4688 43.2128l162.9696 103.6544z"  /><path fill="#d81e06" d="M863.7184 179.8144h-129.8688l0.0512-26.1376A38.3744 38.3744 0 0 0 695.5776 115.2h-0.0512a38.4 38.4 0 0 0-38.4 38.3232l-0.0512 26.2912H366.8736V153.6a38.4 38.4 0 1 0-76.8 0v26.2144h-129.792C107.1872 179.8144 64 222.208 64 274.304V543.232a38.4 38.4 0 1 0 76.8 0v-118.7072h742.4v389.76c0 9.6-8.9088 17.6896-19.4816 17.6896H160.2816c-10.5728 0-19.4816-8.0896-19.4816-17.6896v-41.6a38.4 38.4 0 1 0-76.8 0v41.6c0 52.096 43.1872 94.4896 96.2816 94.4896H863.744c53.0944 0 96.2816-42.3936 96.2816-94.4896V274.3296c-0.0256-52.096-43.2128-94.5152-96.3072-94.5152zM140.8 373.3504v-99.0208c0-9.6 8.9088-17.6896 19.4816-17.6896h129.792v26.2144a38.4 38.4 0 1 0 76.8 0v-26.2144h290.048l-0.0512 26.1376a38.4 38.4 0 0 0 38.3488 38.4768h0.0512a38.4 38.4 0 0 0 38.4-38.3232l0.0512-26.2912h129.9968c10.5728 0 19.4816 8.0896 19.4816 17.6896v99.0208h-742.4z"  /></svg>