<?xml version="1.0" standalone="no"?><!DOCTYPE svg PUBLIC "-//W3C//DTD SVG 1.1//EN" "http://www.w3.org/Graphics/SVG/1.1/DTD/svg11.dtd"><svg class="icon" width="200px" height="200.00px" viewBox="0 0 1024 1024" version="1.1" xmlns="http://www.w3.org/2000/svg"><path fill="#2c2c2c" d="M488.5 757.3l0.1 0.1 0.7 0.7c12.3 12.3 32.4 12.3 44.7 0l181.9-181.9c12.3-12.4 12.3-32.5 0-44.8l-0.7-0.7c-12.3-12.3-32.4-12.3-44.7 0L543.1 658.2V95.4c0-17.3-14.2-31.5-31.5-31.5s-31.5 14.2-31.5 31.5v562.8L352.6 530.6c-12.5-12.5-32.9-12.5-45.4 0s-12.5 32.9 0 45.4l181.3 181.3zM960.9 544.9c0-18-14.7-32.7-32.7-32.7s-32.7 14.7-32.7 32.7v350H647c-0.9-0.1-1.7-0.1-2.6-0.1-18.2 0-33 14.7-33 32.9s14.8 32.9 33 32.9c1.6 0 3.1-0.1 4.6-0.3h279.2c18 0 32.7-14.7 32.7-32.7v-0.4V544.9z"  /><path fill="#2c2c2c" d="M479.3 927.6a33 32.9 0 1 0 66 0 33 32.9 0 1 0-66 0Z"  /><path fill="#2c2c2c" d="M380.1 894.8c-0.9 0-1.7 0-2.6 0.1H128.7v-350c0-18-14.7-32.7-32.7-32.7s-32.7 14.7-32.7 32.7v382c0 3.4 0.5 6.6 1.5 9.7 3.9 13.6 16.5 23.7 31.4 23.7h279.2c1.5 0.2 3 0.3 4.6 0.3 18.2 0 33-14.7 33-32.9 0.1-18.2-14.7-32.9-32.9-32.9z"  /></svg>