<?xml version="1.0" standalone="no"?><!DOCTYPE svg PUBLIC "-//W3C//DTD SVG 1.1//EN" "http://www.w3.org/Graphics/SVG/1.1/DTD/svg11.dtd"><svg class="icon" width="200px" height="200.00px" viewBox="0 0 1024 1024" version="1.1" xmlns="http://www.w3.org/2000/svg"><path fill="#707070" d="M320 63.968v681.024c-33.984-25.376-78.752-40.96-128-40.96-106.016 0-192 71.616-192 159.968 0 88.384 85.984 160 192 160 92.864 0 170.336-54.976 188.16-128H384V351.296L960 286.72v362.272C926.016 623.584 881.248 608 832 608c-106.016 0-192 71.648-192 160 0 88.384 85.984 160 192 160s192-71.616 192-160V0L320 63.968zM192 960c-70.688 0-128-42.976-128-96 0-52.992 57.312-96 128-96s128 43.008 128 96c0 53.024-57.312 96-128 96z m640-96c-70.688 0-128-42.976-128-96s57.312-96 128-96 128 42.976 128 96-57.312 96-128 96z m128-648L384 280.992V136l576-64.992V216z" /></svg>