<?xml version="1.0" standalone="no"?><!DOCTYPE svg PUBLIC "-//W3C//DTD SVG 1.1//EN" "http://www.w3.org/Graphics/SVG/1.1/DTD/svg11.dtd"><svg class="icon" width="200px" height="200.00px" viewBox="0 0 1024 1024" version="1.1" xmlns="http://www.w3.org/2000/svg"><path fill="#2c2c2c" d="M955.027253 38.540704c0-10.145037-4.876044-19.627997-13.07578-25.58772-8.228389-5.94642-18.767398-7.551985-28.404877-4.410441L373.710677 186.442947c-12.878283 4.212943-21.61423 16.23165-21.698142 29.800663l-2.776224 497.262374c-29.630795-24.474365-67.590263-39.184363-108.929703-39.184363-94.486789 0-171.333861 76.875725-171.333861 171.348188 0 94.486789 76.847072 171.362513 171.333861 171.362513 94.346596 0 171.151713-76.720182 171.320558-171.051429l0.027629-0.155542 2.818179-504.124651 310.041716-101.969189c11.046568-3.634776 17.04927-15.526594 13.413471-26.573163-3.607147-11.060895-15.470312-17.04927-26.574186-13.442123l-296.643594 97.600703 0.338714-58.022368L891.848455 82.190766v57.853524l-79.412495 26.137235c-11.046568 3.6358-17.04927 15.54092-13.412448 26.601814 2.902091 8.848511 11.130479 14.456218 20.00662 14.456218a21.284726 21.284726 0 0 0 6.566542-1.042747l66.251781-21.825031v372.637231c-29.505952-24.108023-67.153312-38.620522-108.155063-38.620522-94.486789 0-171.362513 76.874701-171.362513 171.36149 0 94.460183 76.875725 171.334884 171.362513 171.334884 94.487812 0 171.334884-76.874701 171.334885-171.334884 0-4.648871-0.338714-9.171875-0.705057-13.694879a31.640564 31.640564 0 0 0 0.705057-6.56552V38.540704h-0.001024zM240.305584 953.866827c-59.656586 0-108.182692-48.568062-108.182692-108.197018 0-59.656586 48.526106-108.182692 108.182692-108.182692 59.657609 0 108.182692 48.526106 108.182692 108.182692 0 59.628956-48.525083 108.197018-108.182692 108.197018z m543.386785-155.934157c-59.684215 0-108.210321-48.553735-108.210321-108.183715 0-59.656586 48.526106-108.210321 108.210321-108.210321 59.657609 0 108.155063 48.553735 108.155063 108.210321 0.001023 59.62998-48.497454 108.183715-108.155063 108.183715zM828.471136 668.953368c-11.610409 0-21.05039 9.439981-21.05039 21.063692 0 13.062478-10.652596 23.728377-23.728377 23.728377-13.10341 0-23.754983-10.665899-23.754982-23.728377 0-8.482168 4.591566-16.371843 11.948099-20.626741 10.060103-5.790878 13.526034-18.683487 7.749482-28.75894-5.805204-10.044754-18.683487-13.497382-28.772243-7.735156-20.372962 11.737299-33.026118 33.632938-33.026118 57.119814 0 36.309901 29.532558 65.829156 65.855762 65.829156 36.296598 0 65.856785-29.519255 65.856786-65.829156 0.001023-11.622689-9.439981-21.062669-21.078019-21.062669zM285.083327 821.661046c-11.609386 0-21.049366 9.398025-21.049366 21.049367 0 13.07578-10.623944 23.74168-23.728377 23.74168-13.089083 0-23.740656-10.665899-23.740656-23.74168 0-8.496494 4.579286-16.386169 11.933773-20.613439 10.074429-5.833857 13.526034-18.69679 7.736179-28.757917-5.819531-10.087732-18.684511-13.540361-28.75894-7.736179-20.359659 11.737299-33.012815 33.618611-33.012815 57.106512 0 36.309901 29.519255 65.842459 65.842459 65.842459 36.309901 0 65.828133-29.531535 65.828133-65.842459 0.001023-11.651341-9.411328-21.048343-21.05039-21.048344z" /></svg>