<?xml version="1.0" standalone="no"?><!DOCTYPE svg PUBLIC "-//W3C//DTD SVG 1.1//EN" "http://www.w3.org/Graphics/SVG/1.1/DTD/svg11.dtd"><svg class="icon" width="200px" height="200.00px" viewBox="0 0 1024 1024" version="1.1" xmlns="http://www.w3.org/2000/svg"><path fill="#707070" d="M511.654123 959.701578c-247.249197 0-447.683159-200.433962-447.683159-447.682136S264.404925 64.336284 511.654123 64.336284s447.683159 200.433962 447.683159 447.682136S758.902296 959.701578 511.654123 959.701578zM511.654123 120.143311c-216.427214 0-391.875109 175.447894-391.875109 391.875109s175.446871 391.875109 391.875109 391.875109 391.874085-175.448918 391.874085-391.875109S728.081337 120.143311 511.654123 120.143311zM511.654123 651.92075c-77.266781 0-139.901307-62.635549-139.901307-139.901307 0-77.264735 62.635549-139.900284 139.901307-139.900284 77.265758 0 139.901307 62.635549 139.901307 139.900284C651.555429 589.285201 588.91988 651.92075 511.654123 651.92075zM511.654123 428.079682c-46.357817 0-83.941807 37.581943-83.941807 83.939761 0 46.358841 37.58399 83.940784 83.941807 83.940784s83.941807-37.581943 83.941807-83.940784C595.594907 465.660602 558.01194 428.079682 511.654123 428.079682zM252.759701 451.877691l-59.259662 11.851932c20.418029-135.654586 125.540228-243.481384 259.772418-268.099061l-7.348362 58.784848C350.090447 278.794657 275.119965 355.255073 252.759701 451.877691z" /></svg>